<svg width="213" height="33" viewBox="0 0 213 33" fill="none" xmlns="http://www.w3.org/2000/svg">
<rect y="6.47998" width="17.3333" height="15.8889" rx="2" fill="#F5F5F5"/>
<rect x="18.7773" y="6.47998" width="7.22222" height="15.8889" rx="2" fill="#F5F5F5"/>
<rect y="23.8132" width="26" height="8.66667" rx="2" fill="#F5F5F5"/>
<path d="M199.716 32.4799C197.551 32.4799 195.701 32.2694 194.168 31.8483C192.664 31.3972 191.431 30.8408 190.469 30.1792C189.536 29.4875 188.845 28.7808 188.393 28.059C187.942 27.3071 187.702 26.6305 187.672 26.029C187.642 25.6982 187.732 25.4125 187.942 25.1719C188.183 24.9313 188.454 24.811 188.754 24.811H196.604C196.634 24.811 196.664 24.811 196.694 24.811C196.724 24.811 196.754 24.811 196.784 24.811C197.175 24.8411 197.521 24.9764 197.822 25.217C198.152 25.4275 198.483 25.638 198.814 25.8485C199.175 26.0591 199.581 26.1643 200.032 26.1643C200.273 26.1643 200.498 26.1042 200.709 25.9839C200.949 25.8636 201.07 25.6982 201.07 25.4877C201.07 25.217 200.979 24.9764 200.799 24.7659C200.649 24.5554 200.243 24.3448 199.581 24.1343C198.949 23.8937 197.882 23.6381 196.378 23.3674C194.995 23.0968 193.671 22.6757 192.408 22.1043C191.145 21.5329 190.108 20.7359 189.296 19.7134C188.514 18.6909 188.123 17.3977 188.123 15.8339C188.123 14.5407 188.559 13.3077 189.431 12.1348C190.303 10.9619 191.581 9.9995 193.265 9.24765C194.98 8.4958 197.07 8.11987 199.536 8.11987C201.4 8.11987 203.055 8.33039 204.498 8.75143C205.942 9.17247 207.16 9.7138 208.152 10.3754C209.175 11.0371 209.957 11.7438 210.498 12.4957C211.039 13.2475 211.325 13.9392 211.355 14.5708C211.385 14.9016 211.295 15.1873 211.084 15.4279C210.874 15.6685 210.633 15.7888 210.363 15.7888H203.235C203.175 15.7888 203.1 15.7888 203.009 15.7888C202.919 15.7888 202.844 15.7888 202.784 15.7888C202.363 15.7888 201.987 15.6835 201.656 15.473C201.325 15.2324 200.994 15.0068 200.664 14.7963C200.333 14.5557 199.942 14.4354 199.491 14.4354C199.28 14.4354 199.07 14.5106 198.859 14.661C198.679 14.7813 198.589 14.9467 198.589 15.1572C198.589 15.3978 198.679 15.6384 198.859 15.879C199.04 16.0895 199.476 16.3 200.167 16.5105C200.859 16.691 201.987 16.9015 203.551 17.1421C205.716 17.4428 207.445 17.9992 208.739 18.8112C210.032 19.6232 210.949 20.5555 211.49 21.6081C212.062 22.6607 212.347 23.6982 212.347 24.7208C212.347 26.3147 211.851 27.6981 210.859 28.871C209.896 30.0439 208.468 30.9461 206.573 31.5777C204.709 32.1791 202.423 32.4799 199.716 32.4799Z" fill="#F5F5F5"/>
<path d="M176.463 32.48C174.899 32.48 173.576 32.2394 172.493 31.7582C171.411 31.247 170.508 30.5853 169.787 29.7733V30.8109C169.787 31.1417 169.666 31.4274 169.426 31.668C169.185 31.9086 168.899 32.0289 168.569 32.0289H160.9C160.569 32.0289 160.283 31.9086 160.043 31.668C159.802 31.4274 159.682 31.1417 159.682 30.8109V1.218C159.682 0.887186 159.802 0.601483 160.043 0.36089C160.283 0.120297 160.569 0 160.9 0H169.245C169.576 0 169.862 0.120297 170.102 0.36089C170.343 0.601483 170.463 0.887186 170.463 1.218V10.2402C171.185 9.5786 172.042 9.06734 173.035 8.70645C174.057 8.31548 175.2 8.12 176.463 8.12C177.786 8.12 179.004 8.33052 180.117 8.75156C181.26 9.17259 182.252 9.80415 183.094 10.6462C183.966 11.4883 184.658 12.571 185.169 13.8942C185.681 15.1874 185.966 16.7212 186.027 18.4956C186.057 19.1572 186.072 19.7436 186.072 20.2549C186.072 20.7661 186.057 21.3676 186.027 22.0593C185.936 23.954 185.636 25.563 185.124 26.8862C184.613 28.2095 183.921 29.2922 183.049 30.1342C182.207 30.9462 181.23 31.5477 180.117 31.9387C179.004 32.2996 177.786 32.48 176.463 32.48ZM172.719 24.4051C173.29 24.4051 173.726 24.2999 174.027 24.0893C174.328 23.8788 174.538 23.5781 174.659 23.1871C174.809 22.7962 174.914 22.33 174.974 21.7887C175.065 20.7962 175.065 19.8038 174.974 18.8113C174.914 18.27 174.809 17.8039 174.659 17.4129C174.538 17.0219 174.328 16.7212 174.027 16.5107C173.726 16.3002 173.29 16.1949 172.719 16.1949C172.207 16.1949 171.786 16.2851 171.456 16.4656C171.155 16.646 170.914 16.9016 170.734 17.2324C170.583 17.5633 170.493 17.9693 170.463 18.4504C170.433 19.1121 170.418 19.6684 170.418 20.1196C170.418 20.5406 170.433 21.097 170.463 21.7887C170.493 22.33 170.568 22.7962 170.689 23.1871C170.839 23.5781 171.08 23.8788 171.411 24.0893C171.741 24.2999 172.177 24.4051 172.719 24.4051Z" fill="#F5F5F5"/>
<path d="M119.36 32.029C119.029 32.029 118.743 31.9087 118.502 31.6681C118.262 31.4275 118.142 31.1418 118.142 30.811V9.78919C118.142 9.45838 118.262 9.17267 118.502 8.93208C118.743 8.69149 119.029 8.57119 119.36 8.57119H126.803C127.134 8.57119 127.419 8.69149 127.66 8.93208C127.901 9.17267 128.021 9.45838 128.021 9.78919V11.2779C128.532 10.5862 129.329 9.90949 130.412 9.24786C131.525 8.55616 132.818 8.18023 134.291 8.12008C137.84 7.99978 140.216 9.23282 141.419 11.8192C142.111 10.7666 143.088 9.89445 144.351 9.20275C145.614 8.48097 146.938 8.12008 148.321 8.12008C149.855 8.12008 151.238 8.46593 152.471 9.15764C153.734 9.84934 154.742 10.932 155.494 12.4056C156.245 13.8793 156.621 15.804 156.621 18.1799V30.811C156.621 31.1418 156.501 31.4275 156.26 31.6681C156.02 31.9087 155.734 32.029 155.403 32.029H147.464C147.133 32.029 146.847 31.9087 146.607 31.6681C146.366 31.4275 146.246 31.1418 146.246 30.811V18.4054C146.246 17.9242 146.171 17.5182 146.02 17.1874C145.87 16.8566 145.659 16.616 145.389 16.4656C145.148 16.2852 144.832 16.195 144.441 16.195C144.08 16.195 143.765 16.2852 143.494 16.4656C143.223 16.616 143.013 16.8566 142.862 17.1874C142.742 17.5182 142.682 17.9242 142.682 18.4054V30.811C142.682 31.1418 142.562 31.4275 142.321 31.6681C142.081 31.9087 141.795 32.029 141.464 32.029H133.524C133.194 32.029 132.908 31.9087 132.667 31.6681C132.427 31.4275 132.306 31.1418 132.306 30.811V18.4054C132.306 17.9242 132.231 17.5182 132.081 17.1874C131.931 16.8566 131.72 16.616 131.449 16.4656C131.209 16.2852 130.893 16.195 130.502 16.195C130.141 16.195 129.825 16.2852 129.555 16.4656C129.284 16.6461 129.074 16.9017 128.923 17.2325C128.773 17.5333 128.698 17.9242 128.698 18.4054V30.811C128.698 31.1418 128.577 31.4275 128.337 31.6681C128.096 31.9087 127.81 32.029 127.48 32.029H119.36Z" fill="#F5F5F5"/>
<path d="M97.066 32.4799C95.5623 32.4799 94.1338 32.119 92.7805 31.3973C91.4572 30.6755 90.3745 29.5627 89.5325 28.059C88.7205 26.5553 88.3145 24.6156 88.3145 22.2397V9.78905C88.3145 9.45823 88.4347 9.17253 88.6753 8.93193C88.9159 8.69134 89.2016 8.57104 89.5325 8.57104H98.1487C98.4795 8.57104 98.7652 8.69134 99.0058 8.93193C99.2464 9.17253 99.3667 9.45823 99.3667 9.78905V21.9239C99.3667 23.578 100.119 24.405 101.622 24.405C102.344 24.405 102.9 24.1945 103.291 23.7735C103.682 23.3525 103.878 22.7359 103.878 21.9239V9.78905C103.878 9.45823 103.998 9.17253 104.239 8.93193C104.479 8.69134 104.765 8.57104 105.096 8.57104H113.667C113.998 8.57104 114.283 8.69134 114.524 8.93193C114.765 9.17253 114.885 9.45823 114.885 9.78905V30.8108C114.885 31.1416 114.765 31.4273 114.524 31.6679C114.283 31.9085 113.998 32.0288 113.667 32.0288H105.772C105.442 32.0288 105.156 31.9085 104.915 31.6679C104.675 31.4273 104.554 31.1416 104.554 30.8108V29.3222C103.803 30.4349 102.765 31.2469 101.442 31.7582C100.119 32.2393 98.6599 32.4799 97.066 32.4799Z" fill="#F5F5F5"/>
<path d="M67.2063 32.0288C66.8755 32.0288 66.5898 31.9085 66.3492 31.6679C66.1086 31.4273 65.9883 31.1416 65.9883 30.8108V9.78905C65.9883 9.45823 66.1086 9.17253 66.3492 8.93193C66.5898 8.69134 66.8755 8.57104 67.2063 8.57104H75.1007C75.4315 8.57104 75.7172 8.69134 75.9578 8.93193C76.1984 9.17253 76.3187 9.45823 76.3187 9.78905V11.3679C77.2811 10.5259 78.3487 9.84919 79.5216 9.33793C80.7246 8.82667 82.0027 8.57104 83.3561 8.57104H85.5214C85.8522 8.57104 86.1379 8.69134 86.3785 8.93193C86.6191 9.17253 86.7394 9.45823 86.7394 9.78905V16.8264C86.7394 17.1572 86.6191 17.4429 86.3785 17.6835C86.1379 17.9241 85.8522 18.0444 85.5214 18.0444H79.7021C78.7998 18.0444 78.1232 18.2699 77.6721 18.721C77.2209 19.1722 76.9954 19.8488 76.9954 20.751V30.8108C76.9954 31.1416 76.8751 31.4273 76.6345 31.6679C76.3939 31.9085 76.1082 32.0288 75.7774 32.0288H67.2063Z" fill="#F5F5F5"/>
<path d="M50.6762 32.4799C48.3906 32.4799 46.3155 32.0889 44.4509 31.307C42.5863 30.495 41.0826 29.3221 39.9398 27.7883C38.797 26.2545 38.1654 24.3749 38.0451 22.1494C38.015 21.6682 38 21.0668 38 20.345C38 19.6232 38.015 19.0067 38.0451 18.4954C38.1654 16.2699 38.7819 14.3903 39.8947 12.8565C41.0375 11.2927 42.5412 10.1198 44.4058 9.33787C46.3004 8.52587 48.3906 8.11987 50.6762 8.11987C53.0521 8.11987 55.067 8.46572 56.7211 9.15743C58.4053 9.81906 59.7586 10.6461 60.7811 11.6385C61.8337 12.6009 62.6006 13.5633 63.0818 14.5257C63.593 15.488 63.8637 16.2699 63.8938 16.8714C63.9239 17.2022 63.8036 17.4879 63.5329 17.7285C63.2923 17.9691 63.0066 18.0894 62.6758 18.0894H53.8791C53.5483 18.0894 53.2776 18.0142 53.0671 17.8639C52.8867 17.6834 52.7213 17.4579 52.5709 17.1872C52.3604 16.7662 52.1348 16.4354 51.8942 16.1948C51.6837 15.9542 51.3529 15.8339 50.9018 15.8339C50.2101 15.8339 49.7439 16.0895 49.5033 16.6008C49.2627 17.112 49.1274 17.8188 49.0973 18.721C49.0673 20.0142 49.0673 21.0818 49.0973 21.9239C49.1575 22.8862 49.2928 23.608 49.5033 24.0892C49.7439 24.5403 50.2101 24.7659 50.9018 24.7659C51.4431 24.7659 51.804 24.6456 51.9844 24.405C52.195 24.1644 52.3904 23.8336 52.5709 23.4125C52.6912 23.1419 52.8566 22.9314 53.0671 22.781C53.2776 22.6005 53.5483 22.5103 53.8791 22.5103H62.6758C63.0066 22.5103 63.2923 22.6306 63.5329 22.8712C63.8036 23.1118 63.9239 23.3975 63.8938 23.7283C63.8637 24.1193 63.6983 24.6757 63.3976 25.3974C63.1269 26.0891 62.6758 26.841 62.0442 27.653C61.4427 28.465 60.6307 29.2469 59.6082 29.9988C58.5857 30.7205 57.3376 31.322 55.864 31.8032C54.3904 32.2543 52.6611 32.4799 50.6762 32.4799Z" fill="#F5F5F5"/>
</svg>
